<?xml version="1.0" encoding="utf-8"?>
<!-- Generator: Adobe Illustrator 27.0.0, SVG Export Plug-In . SVG Version: 6.00 Build 0)  -->
<svg version="1.1" xmlns="http://www.w3.org/2000/svg" xmlns:xlink="http://www.w3.org/1999/xlink" x="0px" y="0px"
	 viewBox="0 0 1080 1080" style="enable-background:new 0 0 1080 1080;" xml:space="preserve">
<style type="text/css">
	.st0{fill:#0F374A;}
	.st1{fill:#6ECFF0;}
</style>
<g id="Layer_2">
	<path class="st0" d="M537.01,1031.17L537.01,1031.17c-272.13,0-492.74-220.61-492.74-492.74v0
		c0-272.13,220.61-492.74,492.74-492.74h0c272.13,0,492.74,220.61,492.74,492.74v0C1029.75,810.56,809.14,1031.17,537.01,1031.17z"
		/>
</g>
<g id="Layer_1">
	<g>
		<g>
			<path class="st1" d="M726.56,753.54L726.56,753.54c0-25.11-31.45-48.91-79.67-63.67c11.13-49.15,6.18-88.25-15.61-100.76
				c-5-2.92-10.85-4.31-17.23-4.33v-0.08c-21.25,0-49.07,15.15-77.2,41.42C508.73,600,480.91,585,459.66,585v0.08
				c-6.49,0-12.36,1.39-17.46,4.33c-21.71,12.52-26.58,51.54-15.38,100.53c-48.06,14.84-79.36,38.56-79.36,63.6
				c0,25.11,31.45,48.91,79.67,63.67c-11.13,49.15-6.18,88.25,15.61,100.76c5.02,2.94,10.9,4.33,17.39,4.33
				c21.25,0,49.07-15.15,77.2-41.42c28.13,26.12,55.95,41.11,77.2,41.11c6.49,0,12.36-1.39,17.46-4.33
				c21.71-12.52,26.58-51.54,15.38-100.53C695.26,802.37,726.56,778.57,726.56,753.54z M613.97,601.93V602
				c3.55,0,6.41,0.7,8.81,2.01c10.51,6.03,15.07,28.98,11.51,58.5c-0.85,7.26-2.24,14.91-3.94,22.72
				c-15.15-3.71-31.68-6.57-49.07-8.42c-10.43-14.3-21.25-27.28-32.15-38.64C574.29,614.79,597.9,601.97,613.97,601.93z
				 M468.54,793.1c3.63,6.18,7.34,12.21,11.13,18.08c-10.97-1.62-21.56-3.63-31.68-6.1c2.86-9.97,6.41-20.25,10.43-30.52
				C461.59,780.74,464.91,786.92,468.54,793.1z M447.76,701.99c10.12-2.4,20.79-4.48,31.84-6.1c-3.79,5.95-7.57,12.05-11.13,18.31
				c-3.55,6.18-6.88,12.36-10.05,18.55C454.25,722.39,450.69,712.04,447.76,701.99z M467.46,753.77c4.79-10.35,10.2-20.71,16-30.83
				c6.03-10.43,12.21-20.32,18.62-29.52c11.51-1,23.18-1.55,34.93-1.55c11.67,0,23.34,0.54,34.77,1.47
				c6.41,9.2,12.67,19.01,18.7,29.36c5.87,10.12,11.2,20.4,16.07,30.75c-4.87,10.35-10.2,20.71-16,30.83
				c-6.03,10.43-12.21,20.32-18.62,29.52c-11.51,1-23.18,1.55-34.93,1.55c-11.67,0-23.34-0.54-34.77-1.47
				c-6.41-9.2-12.67-19.01-18.7-29.36C477.66,774.4,472.33,764.12,467.46,753.77z M605.47,792.87c3.55-6.18,6.88-12.44,10.05-18.62
				v0c4.17,10.35,7.73,20.71,10.66,30.75c-10.12,2.47-20.79,4.56-31.84,6.18C598.13,805.23,601.92,799.13,605.47,792.87z
				 M605.39,713.97c-3.55-6.18-7.34-12.21-11.13-18.08c10.97,1.62,21.56,3.63,31.68,6.1c-2.86,9.97-6.41,20.25-10.43,30.52
				C612.35,726.34,609.03,720.15,605.39,713.97z M558.26,675.1c-6.95-0.31-14.06-0.54-21.25-0.54c-7.26,0-14.45,0.15-21.48,0.54
				c6.95-9.04,14.14-17.31,21.25-24.73C543.96,657.8,551.15,666.06,558.26,675.1z M450.77,604.32c2.32-1.39,5.33-2.01,8.89-2.01
				v-0.08c16,0,39.72,12.75,64.91,36.01c-10.82,11.36-21.64,24.26-31.91,38.56c-17.46,1.85-34,4.71-49.15,8.5
				c-1.78-7.73-3.09-15.22-4.02-22.41C435.86,633.38,440.34,610.43,450.77,604.32z M431.3,800.52c-7.65-2.4-14.91-5.02-21.64-7.88v0
				c-27.35-11.67-45.05-26.97-45.05-39.1c0-12.13,17.7-27.51,45.05-39.1c6.65-2.86,13.91-5.41,21.4-7.8
				c4.4,15.15,10.2,30.91,17.39,47.06C441.34,769.76,435.63,785.45,431.3,800.52z M459.97,905.14c-3.48-0.08-6.41-0.77-8.73-2.09
				l0,0c-10.51-6.03-15.07-28.98-11.51-58.5c0.85-7.26,2.24-14.91,3.94-22.72c15.15,3.71,31.68,6.57,49.07,8.42
				c10.43,14.3,21.25,27.28,32.15,38.64C499.69,892.32,476.04,905.14,459.97,905.14z M537.16,856.69
				c-7.19-7.42-14.37-15.69-21.48-24.73c6.95,0.31,14.06,0.54,21.25,0.54c7.26,0,14.45-0.15,21.48-0.54
				C551.46,841.01,544.27,849.28,537.16,856.69z M623.24,902.75c-2.32,1.39-5.33,2.01-8.89,2.01c-16,0-39.72-12.75-64.91-36.01
				c10.82-11.36,21.64-24.26,31.91-38.56c17.46-1.85,34-4.71,49.15-8.5c1.78,7.8,3.17,15.3,4.02,22.49
				C638.16,873.69,633.68,896.64,623.24,902.75z M664.28,792.64L664.28,792.64c-6.65,2.86-13.91,5.41-21.4,7.8
				c-4.4-15.15-10.2-30.91-17.39-47.06c7.11-16.07,12.83-31.76,17.15-46.83c7.65,2.4,14.91,5.02,21.71,7.88
				c27.35,11.67,45.05,26.97,45.05,39.1C709.33,765.67,691.63,781.04,664.28,792.64z"/>
			<circle class="st1" cx="536.93" cy="753.54" r="35.31"/>
		</g>
		<g>
			<path id="arm_guitar" class="st1" d="M567.92,268.3l-11.51,11.44l6.93,279.13c-8.65-1.21-17.48-1.82-26.46-1.82
				c-8.62,0-17.09,0.57-25.4,1.68l7.35-278.9l-12.34-12.35c5.29-18.65-8.85-104.77-8.85-104.77s11.54-8.15,40.15-8.15
				c28.61,0,40.16,8.15,40.16,8.15S564.28,229.76,567.92,268.3z"/>
			<g id="left_x5F_points">
				<circle class="st1" cx="484.89" cy="184.52" r="8.96"/>
				<circle class="st1" cx="489.51" cy="215.6" r="8.96"/>
				<circle class="st1" cx="491.73" cy="246.79" r="8.96"/>
			</g>
			<g id="right_x5F_points">
				<circle class="st1" cx="590.14" cy="184.65" r="8.96"/>
				<circle class="st1" cx="585.53" cy="215.73" r="8.96"/>
				<circle class="st1" cx="583.3" cy="246.92" r="8.96"/>
			</g>
		</g>
	</g>
</g>
</svg>
