<?xml version="1.0" encoding="utf-8"?>
<!-- Generator: Adobe Illustrator 24.0.3, SVG Export Plug-In . SVG Version: 6.00 Build 0)  -->
<svg version="1.1" xmlns="http://www.w3.org/2000/svg" xmlns:xlink="http://www.w3.org/1999/xlink" x="0px" y="0px"
	 viewBox="0 0 618.08 1140.81" style="enable-background:new 0 0 618.08 1140.81;" xml:space="preserve">
<style type="text/css">
	/* .st0{fill:#61DAFB;} */
	.st1{display:none;}
	.st2{display:inline;}

  #atom {
    transform-box: fill-box;
    transform-origin:center;
    animation: app-logo-spin infinite 20s linear;
  }

  @keyframes app-logo-spin {
    from {
      transform: rotate(0deg);
    }

    to {
      transform: rotate(360deg);
    }
  }

</style>
<g id="react">
	<g>
		<path id="atom" class="st0" d="M558.9,829.6L558.9,829.6c0-32.5-40.7-63.3-103.1-82.4c14.4-63.6,8-114.2-20.2-130.4
			c-6.47-3.78-14.04-5.58-22.3-5.6v-0.1c-27.5,0-63.5,19.6-99.9,53.6c-36.4-33.8-72.4-53.2-99.9-53.2v0.1c-8.4,0-16,1.8-22.6,5.6
			c-28.1,16.2-34.4,66.7-19.9,130.1c-62.2,19.2-102.7,49.9-102.7,82.3c0,32.5,40.7,63.3,103.1,82.4c-14.4,63.6-8,114.2,20.2,130.4
			c6.5,3.8,14.1,5.6,22.5,5.6c27.5,0,63.5-19.6,99.9-53.6c36.4,33.8,72.4,53.2,99.9,53.2c8.4,0,16-1.8,22.6-5.6
			c28.1-16.2,34.4-66.7,19.9-130.1C518.4,892.8,558.9,862,558.9,829.6z M413.2,633.4v0.1c4.6,0,8.3,0.9,11.4,2.6
			c13.6,7.8,19.5,37.5,14.9,75.7c-1.1,9.4-2.9,19.3-5.1,29.4c-19.6-4.8-41-8.5-63.5-10.9c-13.5-18.5-27.5-35.3-41.6-50
			C361.84,650.05,392.4,633.46,413.2,633.4z M225,880.8c4.7,8,9.5,15.8,14.4,23.4c-14.2-2.1-27.9-4.7-41-7.9
			c3.7-12.9,8.3-26.2,13.5-39.5C216,864.8,220.3,872.8,225,880.8z M198.1,762.9c13.1-3.1,26.9-5.8,41.2-7.9
			c-4.9,7.7-9.8,15.6-14.4,23.7c-4.6,8-8.9,16-13,24C206.5,789.3,201.9,775.9,198.1,762.9z M223.6,829.9
			c6.2-13.4,13.2-26.8,20.7-39.9c7.8-13.5,15.8-26.3,24.1-38.2c14.9-1.3,30-2,45.2-2c15.1,0,30.2,0.7,45,1.9
			c8.3,11.9,16.4,24.6,24.2,38c7.6,13.1,14.5,26.4,20.8,39.8c-6.3,13.4-13.2,26.8-20.7,39.9c-7.8,13.5-15.8,26.3-24.1,38.2
			c-14.9,1.3-30,2-45.2,2c-15.1,0-30.2-0.7-45-1.9c-8.3-11.9-16.4-24.6-24.2-38C236.8,856.6,229.9,843.3,223.6,829.9z M402.2,880.5
			c4.6-8,8.9-16.1,13-24.1v0c5.4,13.4,10,26.8,13.8,39.8c-13.1,3.2-26.9,5.9-41.2,8C392.7,896.5,397.6,888.6,402.2,880.5z
			 M402.1,778.4c-4.6-8-9.5-15.8-14.4-23.4c14.2,2.1,27.9,4.7,41,7.9c-3.7,12.9-8.3,26.2-13.5,39.5
			C411.1,794.4,406.8,786.4,402.1,778.4z M341.1,728.1c-9-0.4-18.2-0.7-27.5-0.7c-9.4,0-18.7,0.2-27.8,0.7c9-11.7,18.3-22.4,27.5-32
			C322.6,705.7,331.9,716.4,341.1,728.1z M202,636.5c3-1.8,6.9-2.6,11.5-2.6v-0.1c20.7,0,51.4,16.5,84,46.6
			c-14,14.7-28,31.4-41.3,49.9c-22.6,2.4-44,6.1-63.6,11c-2.3-10-4-19.7-5.2-29C182.7,674.1,188.5,644.4,202,636.5z M176.8,890.4
			c-9.9-3.1-19.3-6.5-28-10.2v0c-35.4-15.1-58.3-34.9-58.3-50.6s22.9-35.6,58.3-50.6c8.6-3.7,18-7,27.7-10.1
			c5.7,19.6,13.2,40,22.5,60.9C189.8,850.6,182.4,870.9,176.8,890.4z M213.9,1025.8c-4.5-0.1-8.3-1-11.3-2.7l0,0
			c-13.6-7.8-19.5-37.5-14.9-75.7c1.1-9.4,2.9-19.3,5.1-29.4c19.6,4.8,41,8.5,63.5,10.9c13.5,18.5,27.5,35.3,41.6,50
			C265.3,1009.2,234.7,1025.8,213.9,1025.8z M313.8,963.1c-9.3-9.6-18.6-20.3-27.8-32c9,0.4,18.2,0.7,27.5,0.7
			c9.4,0,18.7-0.2,27.8-0.7C332.3,942.8,323,953.5,313.8,963.1z M425.2,1022.7c-3,1.8-6.9,2.6-11.5,2.6c-20.7,0-51.4-16.5-84-46.6
			c14-14.7,28-31.4,41.3-49.9c22.6-2.4,44-6.1,63.6-11c2.3,10.1,4.1,19.8,5.2,29.1C444.5,985.1,438.7,1014.8,425.2,1022.7z
			 M478.3,880.2L478.3,880.2c-8.6,3.7-18,7-27.7,10.1c-5.7-19.6-13.2-40-22.5-60.9c9.2-20.8,16.6-41.1,22.2-60.6
			c9.9,3.1,19.3,6.5,28.1,10.2c35.4,15.1,58.3,34.9,58.3,50.6C536.6,845.3,513.7,865.2,478.3,880.2z"/>
		<circle class="st0" cx="313.5" cy="829.6" r="45.7"/>
	</g>
</g>
<g id="guitar">
	<g>
		<path id="arm_guitar" class="st0" d="M353.61,201.65l-14.89,14.8l8.97,361.23c-11.19-1.56-22.62-2.36-34.24-2.36
			c-11.15,0-22.12,0.74-32.87,2.18l9.51-360.93l-15.97-15.98C280.97,176.45,262.67,65,262.67,65s14.94-10.55,51.96-10.55
			C351.66,54.45,366.6,65,366.6,65S348.89,151.77,353.61,201.65z"/>
		<g id="left_x5F_points">
			<circle class="st0" cx="246.15" cy="93.23" r="11.6"/>
			<circle class="st0" cx="252.12" cy="133.45" r="11.6"/>
			<circle class="st0" cx="255" cy="173.81" r="11.6"/>
		</g>
		<g id="right_x5F_points">
			<circle class="st0" cx="382.36" cy="93.4" r="11.6"/>
			<circle class="st0" cx="376.38" cy="133.62" r="11.6"/>
			<circle class="st0" cx="373.51" cy="173.98" r="11.6"/>
		</g>
	</g>
</g>
</svg>
